<svg version="1.1" id="Layer_1" xmlns="http://www.w3.org/2000/svg" xmlns:xlink="http://www.w3.org/1999/xlink" x="0px" y="0px"
	 width="100%" viewBox="0 0 544 544" enable-background="new 0 0 544 544" xml:space="preserve">
<path fill="#000000" opacity="1.000000" stroke="none" 
	d="
M317.454010,338.546539 
	C279.441498,300.662567 241.757828,262.944550 203.852676,225.450455 
	C190.444778,212.187958 172.993164,211.371490 157.428436,222.524078 
	C141.930222,233.628952 135.975403,252.629547 143.125275,268.272369 
	C144.870468,272.090607 147.241699,275.513458 150.205154,278.488434 
	C159.730621,288.050873 169.356323,297.514893 178.782806,307.173553 
	C181.213089,309.663727 182.801941,309.713654 185.264969,307.212677 
	C197.424835,294.865448 209.833405,282.762329 221.935333,270.359467 
	C225.053101,267.164185 227.080505,267.255127 230.013107,270.450836 
	C234.740936,275.602875 239.778641,280.479156 244.826813,285.324677 
	C247.011032,287.421204 246.994019,288.952637 244.839584,291.095856 
	C224.754364,311.076080 204.728912,331.116547 184.736450,351.189606 
	C182.781693,353.152222 181.351883,353.223999 179.368454,351.187195 
	C161.004105,332.328552 141.421844,314.629211 124.026833,294.866425 
	C105.346039,273.642883 104.329529,241.785797 120.409180,218.316269 
	C131.374069,202.312134 145.703506,190.702194 164.699417,186.233246 
	C187.113983,180.960037 207.186752,186.590805 223.614197,202.766968 
	C260.063507,238.658752 296.197540,274.870758 332.458221,310.954102 
	C338.954315,317.418457 345.338989,323.998749 351.953125,330.339844 
	C367.722382,345.458160 388.154449,344.611023 404.295227,328.300720 
	C419.599548,312.835724 419.899048,291.803772 404.903809,276.569244 
	C395.903076,267.424866 386.739136,258.440979 377.630157,249.403549 
	C376.585571,248.367142 375.422424,247.450287 373.832611,246.055450 
	C369.794647,249.996262 365.863739,253.758194 362.015594,257.602966 
	C352.821289,266.789215 343.574463,275.926208 334.546936,285.274323 
	C331.583374,288.343140 329.504211,288.699585 326.457581,285.341553 
	C321.648468,280.040894 316.433289,275.104340 311.311707,270.093658 
	C309.413391,268.236420 309.115356,266.834778 311.217377,264.746582 
	C330.952637,245.140961 350.651855,225.498047 370.205658,205.711899 
	C373.207855,202.674042 374.971222,203.026657 377.798706,205.891815 
	C393.951080,222.259216 410.289032,238.443512 426.557922,254.695999 
	C439.099274,267.224701 446.535583,282.191956 446.871002,300.038940 
	C447.083252,311.331482 444.173706,322.112732 438.709686,332.117523 
	C429.738953,348.543396 416.733063,360.648102 399.225342,367.211273 
	C374.576996,376.451233 352.402863,371.381744 333.002960,353.888550 
	C327.687469,349.095551 322.786682,343.842590 317.454010,338.546539 
z"/>
<path fill="#000000" opacity="1.000000" stroke="none" 
	d="
M271.325836,348.326202 
	C256.599609,363.049164 242.048447,377.448578 227.711258,392.057953 
	C224.783066,395.041718 222.963898,395.138702 220.126221,392.035614 
	C215.414352,386.882996 210.353989,382.038879 205.290146,377.222809 
	C202.900909,374.950470 202.495728,373.348663 205.132538,370.755402 
	C219.835312,356.295502 234.358688,341.653259 248.945297,327.075195 
	C254.004349,322.019135 259.252502,317.135437 264.058502,311.849518 
	C266.746307,308.893311 268.414398,309.428253 270.843048,312.000519 
	C275.753754,317.201660 280.822113,322.265472 286.026306,327.172943 
	C288.530670,329.534576 288.709259,331.250275 286.121826,333.677490 
	C281.147858,338.343445 276.411469,343.262665 271.325836,348.326202 
z"/>
<path fill="#000000" opacity="1.000000" stroke="none" 
	d="
M281.667603,210.667847 
	C297.231079,195.117844 312.621002,179.893234 327.812378,164.473007 
	C330.922760,161.315781 333.037628,160.745483 336.247589,164.325729 
	C340.909607,169.525620 345.987610,174.363251 351.036621,179.200500 
	C353.242157,181.313522 353.142426,182.820892 351.007477,184.943802 
	C331.050507,204.788498 311.152863,224.693024 291.296844,244.638779 
	C289.358673,246.585693 287.980377,246.810226 285.965698,244.716248 
	C280.771271,239.317383 275.464417,234.020691 270.052856,228.839417 
	C267.536987,226.430618 267.631531,224.568314 270.123169,222.227768 
	C274.004547,218.581741 277.667999,214.703751 281.667603,210.667847 
z"/>
</svg>